<svg id="Ebene_1" data-name="Ebene 1" xmlns="http://www.w3.org/2000/svg" viewBox="0 0 442.5 131.04"><title>Logo made in</title><path d="M0,32.68V98.62L56.57,131l56.81-32.42V32.68L56.57,0ZM74.05,43.76H84.52V87.11H73.87V66.35L62.15,86.9v.21H51.5V66.35L39.66,87.11H28.86V66.35l0-22.59H39.52V67.45L51.68,43.76H62.15V66.93Z"/><path d="M203.71,44.58c-6.07,0-10.32,2.44-12.61,4.81a14.37,14.37,0,0,0-11.19-4.81,15,15,0,0,0-9,3V45.21H159v39.4h11.9v-26a8.62,8.62,0,0,1,6.54-3.08c4.73,0,6.22,4.1,6.22,9.22V84.61h11.9v-22a29.76,29.76,0,0,0-.23-3.7,8.64,8.64,0,0,1,6.77-3.39c4.73,0,6.23,4.1,6.23,9.22V84.61h11.9v-22C220.26,52.78,215.45,44.58,203.71,44.58Z"/><path d="M254.27,47.57a13.79,13.79,0,0,0-8.66-3c-11.66,0-19.07,9.54-19.07,20.33S234,85.24,245.61,85.24a13.74,13.74,0,0,0,8.66-3v2.37h11.91V45.21H254.27Zm0,23.49a7.9,7.9,0,0,1-6.69,3.31c-5.67,0-9.06-4.26-9.06-9.46s3.39-9.46,9.06-9.46a7.87,7.87,0,0,1,6.69,3.31Z"/><path d="M300.59,47.57a13.84,13.84,0,0,0-8.67-3c-11.66,0-19.07,9.54-19.07,20.33s7.41,20.33,19.07,20.33a13.79,13.79,0,0,0,8.67-3v2.37h11.9V28.66h-11.9Zm0,23.49a7.93,7.93,0,0,1-6.7,3.31c-5.67,0-9.06-4.26-9.06-9.46s3.39-9.46,9.06-9.46a7.9,7.9,0,0,1,6.7,3.31Z"/><path d="M339.83,44.58c-12.13,0-20.33,8.75-20.33,20.33a20.07,20.07,0,0,0,20.09,20.33,20.73,20.73,0,0,0,17.81-9.46l-9.46-6.38a9,9,0,0,1-8.43,5c-3.54,0-8-2.05-8.59-7.33h27.66a26.19,26.19,0,0,0,.24-3.47C358.82,51.12,349.84,44.58,339.83,44.58ZM331.08,60.1c1.1-4.72,5.2-6,8-6,3.7,0,7.09,1.66,7.88,5.52l.08.47Z"/><rect x="383.09" y="45.21" width="11.98" height="39.4"/><path d="M425.32,44.58a14.54,14.54,0,0,0-9.06,3V45.21h-11.9v39.4h11.9V58.84a10.06,10.06,0,0,1,7.09-3.39c5.2,0,7.25,4,7.25,9.3V84.61h11.9v-22C442.5,52,436.43,44.58,425.32,44.58Z"/><path d="M389.07,27.05a7.1,7.1,0,1,0,7.11,7.1A7.1,7.1,0,0,0,389.07,27.05Z"/></svg>